<svg width="1.614mm" height="2.4077mm" version="1.1" viewBox="0 0 1.614 2.4077" xmlns="http://www.w3.org/2000/svg"><g transform="translate(144.85 -22.623)"><g transform="translate(1.0683 -.021177)" stroke="#000" stroke-width=".026458" style="paint-order:normal"><g transform="translate(-3.5751 .01181)" style="paint-order:normal"><path d="m-142.33 22.646v0.26458h0.26458v0.79375h0.26458v-0.79375h0.26459v0.79375h0.26458v-0.26458h0.26458v-0.26458h-0.26458v-0.26458h0.52917v-0.26458h-1.3229z" fill="#fff" style="paint-order:normal"/><path d="m-141.8 23.704v0.26458h0.52917v-0.26458h-0.26458zm0.52917 0.26458v0.26458h0.26458v-0.26458zm-0.52917 0h-0.26458v0.79375h0.26458v-0.52917zm0 0.79375v0.26458h0.52917v-0.26458h-0.26458zm0.52917 0h0.26458v-0.26458h-0.26458z" fill="#f00" style="paint-order:normal"/></g><path d="m-145.11 23.716 0.26458-1e-6m-0.52917-0.79375h0.26459v0.79375h-0.26459zm-0.52917-0.26458h1.5875v0.26458h-0.52917v0.26458h0.26458v0.26458h-0.26458l-1e-5 0.26458 1e-5 0.26458h0.26458v0.26458h-0.26458l-1e-5 -0.26458h-0.52917v0.79375h0.52917l1e-5 -0.26458h0.26458v0.26458h-0.26458l-1e-5 0.26458h-0.52917v-0.26458h-0.26459v-0.79375h0.26459v-0.26458h-0.26459v-0.79375h-0.26458z" fill="none" style="paint-order:normal"/></g></g></svg>
